<svg xmlns="http://www.w3.org/2000/svg" xmlns:xlink="http://www.w3.org/1999/xlink" viewBox="0 0 182.06 42.64"><defs><style>.cls-1{fill:none;}.cls-2{fill:#333;}.cls-3{fill:#fff;}.cls-4{opacity:0.5;}.cls-5{clip-path:url(#clip-path);}.cls-6{fill:#a4c217;}.cls-7{clip-path:url(#clip-path-2);}.cls-8{fill:#ec8300;}.cls-9{clip-path:url(#clip-path-3);}.cls-10{fill:#86408e;}.cls-11{clip-path:url(#clip-path-4);}.cls-12{fill:#e13914;}.cls-13{clip-path:url(#clip-path-5);}.cls-14{fill:#ffe800;}.cls-15{clip-path:url(#clip-path-6);}.cls-16{fill:#6ab03c;}.cls-17{clip-path:url(#clip-path-7);}.cls-18{fill:#4ba5dc;}.cls-19{clip-path:url(#clip-path-8);}.cls-20{fill:#74c3d7;}.cls-21{clip-path:url(#clip-path-9);}.cls-22{fill:#e00b6c;}.cls-23{clip-path:url(#clip-path-13);}</style><clipPath id="clip-path" transform="translate(0 0)"><rect class="cls-1" x="4.29" y="21.32" width="14.21" height="14.21"/></clipPath><clipPath id="clip-path-2" transform="translate(0 0)"><rect class="cls-1" x="24.13" y="21.32" width="14.21" height="14.21"/></clipPath><clipPath id="clip-path-3" transform="translate(0 0)"><rect class="cls-1" x="24.13" y="7.1" width="14.21" height="14.21"/></clipPath><clipPath id="clip-path-4" transform="translate(0 0)"><rect class="cls-1" x="28.43" y="14.21" width="14.21" height="14.21"/></clipPath><clipPath id="clip-path-5" transform="translate(0 0)"><rect class="cls-1" x="14.21" y="28.43" width="14.21" height="14.21"/></clipPath><clipPath id="clip-path-6" transform="translate(0 0)"><rect class="cls-1" y="14.21" width="14.21" height="14.21"/></clipPath><clipPath id="clip-path-7" transform="translate(0 0)"><rect class="cls-1" x="14.22" width="14.21" height="14.21"/></clipPath><clipPath id="clip-path-8" transform="translate(0 0)"><rect class="cls-1" x="4.29" y="7.11" width="14.21" height="14.21"/></clipPath><clipPath id="clip-path-9" transform="translate(0 0)"><rect class="cls-1" x="14.22" y="14.21" width="14.21" height="14.21"/></clipPath><clipPath id="clip-path-13" transform="translate(0 0)"><rect class="cls-1" x="28.43" y="14.21" width="14.21" height="14.21"/></clipPath></defs><g id="Calque_2" data-name="Calque 2"><g id="Calque_1-2" data-name="Calque 1"><path class="cls-2" d="M61.6,12.64a5.91,5.91,0,0,1,2.7,2.25,6.24,6.24,0,0,1,.94,3.47,6.25,6.25,0,0,1-.94,3.46,5.87,5.87,0,0,1-2.7,2.26,10,10,0,0,1-4.14.79H53.33v3.36a1.9,1.9,0,0,1-1.91,1.91H49.94V11.86h7.52A10.19,10.19,0,0,1,61.6,12.64Zm-.93,8.41a3.25,3.25,0,0,0,1.15-2.69,3.28,3.28,0,0,0-1.15-2.69,5.25,5.25,0,0,0-3.37-.94h-4V22h4A5.19,5.19,0,0,0,60.67,21.05Z" transform="translate(0 0)"/><path class="cls-2" d="M80,29.32l-3.16-4.53a6.68,6.68,0,0,1-.71,0H72v3.42a1.91,1.91,0,0,1-1.92,1.91H68.64V11.86h7.52a10.13,10.13,0,0,1,4.14.78A6,6,0,0,1,83,14.89,6.32,6.32,0,0,1,84,18.36a6.23,6.23,0,0,1-1,3.56,6,6,0,0,1-2.89,2.22l4.21,6H81.6A1.91,1.91,0,0,1,80,29.32Zm-.65-13.65A5.27,5.27,0,0,0,76,14.73H72V22h4a5.21,5.21,0,0,0,3.37-.95,3.35,3.35,0,0,0,1.15-2.71A3.31,3.31,0,0,0,79.38,15.67Z" transform="translate(0 0)"/><path class="cls-2" d="M91.23,29.19a9,9,0,0,1-3.52-3.37A9.2,9.2,0,0,1,86.43,21a9.2,9.2,0,0,1,1.28-4.82,9,9,0,0,1,3.52-3.37,11.12,11.12,0,0,1,10.09,0,9,9,0,0,1,3.52,3.36A9.18,9.18,0,0,1,106.12,21a9.13,9.13,0,0,1-1.28,4.83,9,9,0,0,1-3.52,3.36,11.12,11.12,0,0,1-10.09,0Zm8.34-2.59a6,6,0,0,0,2.3-2.29,7,7,0,0,0,0-6.61,6,6,0,0,0-2.3-2.3,7,7,0,0,0-6.59,0,5.89,5.89,0,0,0-2.29,2.3,6.92,6.92,0,0,0,0,6.61A5.86,5.86,0,0,0,93,26.6a7,7,0,0,0,6.59,0Z" transform="translate(0 0)"/><path class="cls-2" d="M120,29.34l-4.39-6.14-4.34,6.13a1.91,1.91,0,0,1-1.56.81h-2.88l6.8-9.32-6.43-9h2.86a1.91,1.91,0,0,1,1.55.8l4.11,5.7,4.05-5.7a1.92,1.92,0,0,1,1.56-.8H124l-6.4,8.83,6.87,9.45h-2.93A1.9,1.9,0,0,1,120,29.34Z" transform="translate(0 0)"/><path class="cls-2" d="M142.48,11.86V24.55a8.33,8.33,0,0,1-2.2,6.22,8.32,8.32,0,0,1-6.1,2.17,12.3,12.3,0,0,1-4.18-.67,8.81,8.81,0,0,1-3.19-1.89l.37-.69a1.89,1.89,0,0,1,2.59-.79A8.82,8.82,0,0,0,134.13,30c3.3,0,5-1.75,5-5.25V23.33a6.47,6.47,0,0,1-5.38,2.35,7.08,7.08,0,0,1-5.38-2A7.89,7.89,0,0,1,126.42,18V11.86h1.48a1.92,1.92,0,0,1,1.92,1.91v4.07A5.1,5.1,0,0,0,131,21.48a4.23,4.23,0,0,0,3.25,1.25,4.78,4.78,0,0,0,3.54-1.32,5.31,5.31,0,0,0,1.32-3.91V13.77A1.92,1.92,0,0,1,141,11.86Z" transform="translate(0 0)"/><path class="cls-2" d="M172.68,13.47a7.41,7.41,0,0,1,1.8,5.36v9.4a1.9,1.9,0,0,1-1.91,1.91h-1.48V19A4.36,4.36,0,0,0,170,15.69a4.05,4.05,0,0,0-3-1.11,4.58,4.58,0,0,0-3.26,1.14,4.66,4.66,0,0,0-1.21,3.53v9a1.91,1.91,0,0,1-1.92,1.91h-1.48V19a4.59,4.59,0,0,0-1.05-3.29,3.84,3.84,0,0,0-2.89-1.09,4.58,4.58,0,0,0-3.3,1.16,4.57,4.57,0,0,0-1.25,3.51v9a1.9,1.9,0,0,1-1.91,1.91h-1.48V11.86h1.38a1.92,1.92,0,0,1,1.91,1.91v.49a5.51,5.51,0,0,1,2.27-2,7.61,7.61,0,0,1,3.32-.69,7.31,7.31,0,0,1,3.37.73,5,5,0,0,1,2.17,2.06,6,6,0,0,1,2.49-2.06,8.28,8.28,0,0,1,3.52-.73A6.61,6.61,0,0,1,172.68,13.47Z" transform="translate(0 0)"/><path class="cls-2" d="M180.31,6.93a3.23,3.23,0,0,1,1.29,1.3,4.06,4.06,0,0,1,.46,1.94,4,4,0,0,1-.46,1.92,3.37,3.37,0,0,1-1.29,1.33,3.8,3.8,0,0,1-1.9.47,3.83,3.83,0,0,1-1.91-.47,3.33,3.33,0,0,1-1.3-1.33,3.9,3.9,0,0,1-.46-1.92,4,4,0,0,1,.46-1.94,3.11,3.11,0,0,1,1.29-1.3,3.9,3.9,0,0,1,1.92-.46A3.79,3.79,0,0,1,180.31,6.93Zm-.18,6.13a2.77,2.77,0,0,0,1.14-1.16,3.59,3.59,0,0,0,.4-1.73,3.66,3.66,0,0,0-.4-1.76,2.72,2.72,0,0,0-1.14-1.16,3.42,3.42,0,0,0-1.72-.42,3.48,3.48,0,0,0-1.74.42,2.83,2.83,0,0,0-1.14,1.16,3.78,3.78,0,0,0-.4,1.76,3.71,3.71,0,0,0,.4,1.73,2.89,2.89,0,0,0,1.14,1.16,3.47,3.47,0,0,0,1.74.41A3.42,3.42,0,0,0,180.13,13.06Zm-.23-3.12a1.56,1.56,0,0,1-1,.42l1.32,2h-.7l-1.28-2h-.67v2H177V7.73h1.65a1.74,1.74,0,0,1,1.2.36,1.22,1.22,0,0,1,.41,1A1.24,1.24,0,0,1,179.9,9.94Zm-2.3,0h1c.68,0,1-.28,1-.83a.76.76,0,0,0-.24-.61,1.2,1.2,0,0,0-.78-.2h-1Z" transform="translate(0 0)"/><path class="cls-3" d="M13.42,35.53h-4A5.07,5.07,0,0,1,4.3,30.45V26.4a5.07,5.07,0,0,1,5.08-5.08h4a5.08,5.08,0,0,1,5.09,5.08v4.05a5.08,5.08,0,0,1-5.09,5.08" transform="translate(0 0)"/><path class="cls-3" d="M33.26,35.53h-4a5.08,5.08,0,0,1-5.09-5.08V26.4a5.08,5.08,0,0,1,5.09-5.08h4a5.08,5.08,0,0,1,5.09,5.08v4.05a5.08,5.08,0,0,1-5.09,5.08" transform="translate(0 0)"/><path class="cls-3" d="M33.26,21.32h-4a5.09,5.09,0,0,1-5.09-5.08v-4a5.08,5.08,0,0,1,5.09-5.08h4a5.08,5.08,0,0,1,5.09,5.08v4a5.09,5.09,0,0,1-5.09,5.08" transform="translate(0 0)"/><path class="cls-3" d="M37.56,28.43H33.51a5.08,5.08,0,0,1-5.08-5.09V19.29a5.08,5.08,0,0,1,5.08-5.08h4.05a5.08,5.08,0,0,1,5.08,5.08v4.05a5.08,5.08,0,0,1-5.08,5.09" transform="translate(0 0)"/><path class="cls-3" d="M23.34,42.64h-4a5.08,5.08,0,0,1-5.08-5.09v-4a5.07,5.07,0,0,1,5.08-5.08h4a5.08,5.08,0,0,1,5.09,5.08v4a5.09,5.09,0,0,1-5.09,5.09" transform="translate(0 0)"/><path class="cls-3" d="M9.13,28.43H5.08A5.09,5.09,0,0,1,0,23.34V19.29a5.09,5.09,0,0,1,5.08-5.08H9.13a5.08,5.08,0,0,1,5.08,5.08v4.05a5.08,5.08,0,0,1-5.08,5.09" transform="translate(0 0)"/><path class="cls-3" d="M23.35,14.21H19.3a5.07,5.07,0,0,1-5.08-5.08V5.08A5.08,5.08,0,0,1,19.3,0h4.05a5.09,5.09,0,0,1,5.08,5.08V9.13a5.08,5.08,0,0,1-5.08,5.08" transform="translate(0 0)"/><path class="cls-3" d="M13.42,21.32h-4A5.08,5.08,0,0,1,4.3,16.24v-4A5.07,5.07,0,0,1,9.38,7.11h4a5.08,5.08,0,0,1,5.09,5.08v4a5.09,5.09,0,0,1-5.09,5.08" transform="translate(0 0)"/><path class="cls-3" d="M23.35,28.43H19.3a5.08,5.08,0,0,1-5.08-5.09V19.29a5.08,5.08,0,0,1,5.08-5.08h4.05a5.09,5.09,0,0,1,5.08,5.08v4.05a5.09,5.09,0,0,1-5.08,5.09" transform="translate(0 0)"/><g class="cls-4"><g class="cls-5"><path class="cls-6" d="M13.42,35.53h-4A5.07,5.07,0,0,1,4.3,30.45V26.4a5.07,5.07,0,0,1,5.08-5.08h4a5.08,5.08,0,0,1,5.09,5.08v4.05a5.08,5.08,0,0,1-5.09,5.08" transform="translate(0 0)"/></g></g><g class="cls-4"><g class="cls-7"><path class="cls-8" d="M33.26,35.53h-4a5.08,5.08,0,0,1-5.09-5.08V26.4a5.08,5.08,0,0,1,5.09-5.08h4a5.08,5.08,0,0,1,5.09,5.08v4.05a5.08,5.08,0,0,1-5.09,5.08" transform="translate(0 0)"/></g></g><g class="cls-4"><g class="cls-9"><path class="cls-10" d="M33.26,21.32h-4a5.09,5.09,0,0,1-5.09-5.08v-4a5.08,5.08,0,0,1,5.09-5.08h4a5.08,5.08,0,0,1,5.09,5.08v4a5.09,5.09,0,0,1-5.09,5.08" transform="translate(0 0)"/></g></g><g class="cls-4"><g class="cls-11"><path class="cls-12" d="M37.56,28.43H33.51a5.08,5.08,0,0,1-5.08-5.09V19.29a5.08,5.08,0,0,1,5.08-5.08h4.05a5.08,5.08,0,0,1,5.08,5.08v4.05a5.08,5.08,0,0,1-5.08,5.09" transform="translate(0 0)"/></g></g><g class="cls-4"><g class="cls-13"><path class="cls-14" d="M23.34,42.64h-4a5.08,5.08,0,0,1-5.08-5.09v-4a5.07,5.07,0,0,1,5.08-5.08h4a5.08,5.08,0,0,1,5.09,5.08v4a5.09,5.09,0,0,1-5.09,5.09" transform="translate(0 0)"/></g></g><g class="cls-4"><g class="cls-15"><path class="cls-16" d="M9.13,28.43H5.08A5.09,5.09,0,0,1,0,23.34V19.29a5.09,5.09,0,0,1,5.08-5.08H9.13a5.08,5.08,0,0,1,5.08,5.08v4.05a5.08,5.08,0,0,1-5.08,5.09" transform="translate(0 0)"/></g></g><g class="cls-4"><g class="cls-17"><path class="cls-18" d="M23.35,14.21H19.3a5.07,5.07,0,0,1-5.08-5.08V5.08A5.08,5.08,0,0,1,19.3,0h4.05a5.09,5.09,0,0,1,5.08,5.08V9.13a5.08,5.08,0,0,1-5.08,5.08" transform="translate(0 0)"/></g></g><g class="cls-4"><g class="cls-19"><path class="cls-20" d="M13.42,21.32h-4A5.08,5.08,0,0,1,4.3,16.24v-4A5.07,5.07,0,0,1,9.38,7.11h4a5.08,5.08,0,0,1,5.09,5.08v4a5.09,5.09,0,0,1-5.09,5.08" transform="translate(0 0)"/></g></g><g class="cls-4"><g class="cls-21"><path class="cls-22" d="M23.35,28.43H19.3a5.08,5.08,0,0,1-5.08-5.09V19.29a5.08,5.08,0,0,1,5.08-5.08h4.05a5.09,5.09,0,0,1,5.08,5.08v4.05a5.09,5.09,0,0,1-5.08,5.09" transform="translate(0 0)"/></g></g><g class="cls-4"><g class="cls-5"><path class="cls-6" d="M13.42,35.53h-4A5.07,5.07,0,0,1,4.3,30.45V26.4a5.07,5.07,0,0,1,5.08-5.08h4a5.08,5.08,0,0,1,5.09,5.08v4.05a5.08,5.08,0,0,1-5.09,5.08" transform="translate(0 0)"/></g></g><g class="cls-4"><g class="cls-7"><path class="cls-8" d="M33.26,35.53h-4a5.08,5.08,0,0,1-5.09-5.08V26.4a5.08,5.08,0,0,1,5.09-5.08h4a5.08,5.08,0,0,1,5.09,5.08v4.05a5.08,5.08,0,0,1-5.09,5.08" transform="translate(0 0)"/></g></g><g class="cls-4"><g class="cls-9"><path class="cls-10" d="M33.26,21.32h-4a5.09,5.09,0,0,1-5.09-5.08v-4a5.08,5.08,0,0,1,5.09-5.08h4a5.08,5.08,0,0,1,5.09,5.08v4a5.09,5.09,0,0,1-5.09,5.08" transform="translate(0 0)"/></g></g><g class="cls-4"><g class="cls-23"><path class="cls-12" d="M37.56,28.42H33.51a5.07,5.07,0,0,1-5.08-5.08V19.29a5.08,5.08,0,0,1,5.08-5.08h4.05a5.09,5.09,0,0,1,5.08,5.08v4.05a5.08,5.08,0,0,1-5.08,5.08" transform="translate(0 0)"/></g></g><g class="cls-4"><g class="cls-13"><path class="cls-14" d="M23.34,42.64h-4a5.08,5.08,0,0,1-5.08-5.09v-4a5.07,5.07,0,0,1,5.08-5.08h4a5.08,5.08,0,0,1,5.09,5.08v4a5.09,5.09,0,0,1-5.09,5.09" transform="translate(0 0)"/></g></g><g class="cls-4"><g class="cls-15"><path class="cls-16" d="M9.13,28.43H5.08A5.09,5.09,0,0,1,0,23.34V19.29a5.09,5.09,0,0,1,5.08-5.08H9.13a5.08,5.08,0,0,1,5.08,5.08v4.05a5.08,5.08,0,0,1-5.08,5.09" transform="translate(0 0)"/></g></g><g class="cls-4"><g class="cls-17"><path class="cls-18" d="M23.35,14.21H19.3a5.07,5.07,0,0,1-5.08-5.08V5.08A5.08,5.08,0,0,1,19.3,0h4.05a5.09,5.09,0,0,1,5.08,5.08V9.13a5.08,5.08,0,0,1-5.08,5.08" transform="translate(0 0)"/></g></g><g class="cls-4"><g class="cls-19"><path class="cls-20" d="M13.42,21.32h-4A5.08,5.08,0,0,1,4.3,16.24v-4A5.07,5.07,0,0,1,9.38,7.11h4a5.08,5.08,0,0,1,5.09,5.08v4a5.09,5.09,0,0,1-5.09,5.08" transform="translate(0 0)"/></g></g><g class="cls-4"><g class="cls-21"><path class="cls-22" d="M23.35,28.43H19.3a5.08,5.08,0,0,1-5.08-5.09V19.29a5.08,5.08,0,0,1,5.08-5.08h4.05a5.09,5.09,0,0,1,5.08,5.08v4.05a5.09,5.09,0,0,1-5.08,5.09" transform="translate(0 0)"/></g></g></g></g></svg>